<svg width="402" height="509" viewBox="0 0 402 509" fill="none" xmlns="http://www.w3.org/2000/svg">
<path d="M290.372 38.2875C299.583 57.7691 305.923 78.1587 310.878 98.6745C315.791 119.218 319.097 139.998 320.804 160.841C322.383 181.667 322.407 202.578 319.914 223.166C317.366 243.699 312.474 264.152 302.707 282.571C297.764 291.711 291.646 300.378 283.876 307.609C276.181 314.905 266.812 320.651 256.577 324.466C246.288 328.226 235.216 329.948 224.102 330.099C212.795 330.25 201.288 327.682 190.81 323.074C180.301 318.475 170.758 311.954 162.401 304.391C154.054 296.807 146.777 288.246 140.529 279.09C134.313 269.926 129.138 260.199 125.068 250.096C121.02 240.005 118.076 229.487 116.826 218.778C115.609 208.113 116.029 197.05 120.058 186.841C122.025 181.749 125.177 177.008 129.306 173.167C133.445 169.307 138.711 166.629 144.231 165.075C155.42 161.996 167.185 163.357 178.096 166.014C188.924 168.829 199.497 171.966 209.941 176.379C215.158 178.544 220.282 181.142 225.144 184.387C226.375 185.168 227.543 186.069 228.712 187.02C229.89 187.9 230.985 188.99 232.069 190.048C233.175 191.067 234.069 192.379 235.068 193.545C235.856 194.902 236.846 196.138 237.389 197.645C238.785 200.492 239.266 203.716 239.16 206.703C239.129 209.755 238.211 212.514 237.229 215.136C235.039 220.287 231.873 224.64 228.502 228.655C221.644 236.65 213.871 243.524 206.001 250.22C198.121 256.884 190.11 263.328 182.218 269.859C166.433 282.922 150.949 296.298 137.867 311.609C131.368 319.288 125.437 327.395 120.833 336.208C116.176 344.967 112.909 354.465 111.659 364.301C110.991 369.221 111.038 374.243 111.394 379.251C111.889 384.257 112.884 389.25 114.359 394.168C117.276 404.064 122.288 413.272 129.348 421.262C132.83 425.295 136.726 429.066 140.454 433.204C144.15 437.3 147.766 442.165 148.98 447.832C150.225 453.44 149.274 458.945 147.743 463.94C146.128 468.939 143.87 473.598 141.409 478.122C140.999 478.893 139.988 479.142 139.154 478.698C138.319 478.255 137.992 477.269 138.392 476.518L138.403 476.498C140.736 472.058 142.856 467.504 144.303 462.77C145.686 458.052 146.396 453.104 145.265 448.418C144.175 443.705 141.086 439.552 137.477 435.654C133.868 431.757 129.844 427.968 126.158 423.802C122.473 419.635 119.072 415.139 116.373 410.305C114.959 407.904 113.79 405.406 112.685 402.89C111.643 400.358 110.698 397.801 109.837 395.238C108.201 390.057 107.065 384.76 106.45 379.412C105.964 374.081 105.851 368.72 106.484 363.451C107.665 352.92 111.098 342.85 115.88 333.65C120.609 324.397 126.697 315.942 133.3 308.014C146.603 292.186 162.213 278.522 177.943 265.253C185.803 258.628 193.781 252.142 201.501 245.468C209.201 238.783 216.846 232.044 223.218 224.501C226.377 220.728 229.215 216.733 230.975 212.495C232.681 208.254 233.128 203.8 231.214 199.865C230.876 198.848 230.091 197.949 229.573 196.963C228.777 196.084 228.174 195.103 227.251 194.308C226.382 193.466 225.534 192.583 224.494 191.853C223.519 191.056 222.533 190.278 221.43 189.615C217.147 186.779 212.419 184.367 207.459 182.338C197.645 178.185 187.104 175.09 176.747 172.423C166.54 169.938 155.843 168.891 146.505 171.534C141.879 172.853 137.632 175.059 134.266 178.189C130.921 181.331 128.295 185.235 126.59 189.629C123.116 198.434 122.678 208.549 123.848 218.479C126.327 238.49 134.634 258.277 146.324 275.729C152.238 284.428 159.118 292.602 166.96 299.739C174.813 306.857 183.692 312.923 193.315 317.177C202.937 321.432 213.324 323.785 223.597 323.668C234.03 323.56 244.345 321.969 253.837 318.52C263.297 315.028 271.934 309.78 279.132 303.006C286.416 296.329 292.282 288.238 297.068 279.547C306.554 262.07 311.537 242.222 314.183 222.173C316.819 202.041 316.957 181.444 315.571 160.874C314.186 140.304 311.233 119.686 306.663 99.3242C302.06 78.9707 296.052 58.7319 287.279 39.4582L287.269 39.427C286.889 38.5914 287.277 37.6561 288.127 37.3474C288.999 37.0501 289.983 37.4717 290.372 38.2875Z" fill="black"/>
<path d="M169.601 461.031C164.622 465.129 159.417 468.93 154.158 472.627C151.539 474.506 148.877 476.311 146.194 478.106C143.543 479.942 140.816 481.663 138.122 483.426C136.563 484.448 134.343 484.029 133.17 482.467C132.815 481.999 132.598 481.478 132.509 480.974L132.498 480.892C131.386 474.62 130.403 468.314 129.59 461.997C128.776 455.681 128.102 449.362 127.832 443.004C127.793 442.096 128.524 441.394 129.472 441.416C130.261 441.43 130.958 441.978 131.165 442.672C133.054 448.875 134.559 455.129 135.905 461.374C137.272 467.63 138.436 473.905 139.516 480.185L133.892 477.651C136.64 475.942 139.334 474.179 142.103 472.532C144.862 470.854 147.621 469.176 150.433 467.552C156.037 464.292 161.694 461.138 167.567 458.25C168.384 457.847 169.41 458.19 169.895 458.981C170.327 459.768 170.173 460.574 169.601 461.031Z" fill="black"/>
<path d="M187.578 184.676C192.972 186.353 198.388 188.142 203.418 191.02C208.394 193.792 213.291 197.436 216.131 202.624C216.95 203.872 217.195 205.321 217.695 206.703C217.871 207.405 217.876 208.118 217.967 208.825C218.025 209.541 218.147 210.24 218.024 210.936L217.816 213.031C217.725 213.718 217.463 214.366 217.298 215.038C217.009 216.407 216.346 217.601 215.78 218.822C213.3 223.641 209.448 227.477 205.305 230.777C205.072 230.958 204.709 230.917 204.505 230.682C204.322 230.458 204.32 230.152 204.51 229.949C208.278 226.373 211.724 222.423 213.876 217.86C215.985 213.377 216.682 208.041 214.006 203.523C211.607 198.951 207.106 195.492 202.418 192.694C197.707 189.784 192.449 187.799 187.265 185.677L187.244 185.665C186.955 185.537 186.793 185.223 186.908 184.954C187.002 184.725 187.311 184.61 187.578 184.676Z" fill="black"/>
<path d="M186.774 336.703C182.993 335.606 179.316 334.107 175.797 332.312C172.277 330.517 168.915 328.374 165.722 326.016C159.442 321.206 153.922 315.379 149.994 308.725C149.833 308.462 149.926 308.131 150.192 307.993C150.446 307.875 150.756 307.964 150.918 308.176C155.597 314.19 160.955 319.702 167.116 324.272C170.15 326.621 173.383 328.695 176.711 330.592C180.061 332.5 183.537 334.17 187.086 335.703C187.375 335.831 187.516 336.134 187.422 336.414C187.317 336.662 187.041 336.769 186.774 336.703Z" fill="black"/>
<path d="M111.677 421.098C109.027 417.305 106.781 413.27 104.854 409.1C102.948 404.942 101.425 400.632 100.178 396.266C97.8555 387.523 96.7671 378.524 97.4281 369.745C97.4473 369.451 97.7228 369.242 98.0322 369.28C98.3201 369.306 98.5457 369.553 98.5584 369.839C98.931 378.584 100.081 387.312 102.467 395.834C103.595 400.112 105.065 404.317 106.768 408.444C108.46 412.59 110.429 416.63 112.6 420.6C112.752 420.883 112.647 421.183 112.382 421.321C112.159 421.43 111.849 421.342 111.677 421.098Z" fill="black"/>
<path d="M299.671 254.935C297.927 259.816 295.723 264.528 293.155 269.047C290.588 273.566 287.603 277.837 284.361 281.921C281.043 285.94 277.469 289.771 273.54 293.236C269.622 296.733 265.393 299.886 260.937 302.691C260.683 302.86 260.341 302.779 260.147 302.524C259.975 302.28 260.026 301.978 260.227 301.806C264.382 298.689 268.312 295.326 272.038 291.778C275.742 288.219 279.264 284.486 282.442 280.47C285.696 276.519 288.618 272.315 291.325 267.998C294.022 263.649 296.419 259.141 298.634 254.511C298.75 254.242 299.101 254.15 299.389 254.278C299.635 254.384 299.755 254.675 299.671 254.935Z" fill="black"/>
<path d="M231.498 312.475C229.678 312.8 227.846 312.993 226.014 313.186C224.183 313.378 222.35 313.469 220.496 313.549C216.799 313.688 213.101 313.725 209.337 313.423L209.316 313.411C208.996 313.393 208.759 313.116 208.747 312.83C208.745 312.575 208.935 312.372 209.169 312.344C212.82 311.724 216.506 311.452 220.192 311.282C222.046 311.202 223.889 311.143 225.765 311.177C227.62 311.199 229.496 311.233 231.351 311.408C231.661 311.446 231.908 311.704 231.888 311.998C231.922 312.244 231.764 312.439 231.498 312.475Z" fill="black"/>
<path d="M292.566 89.4443C291.848 87.4393 291.269 85.4319 290.689 83.4245C290.11 81.4171 289.647 79.3959 289.164 77.3633C288.271 73.3125 287.453 69.2251 287.007 65.1077L286.996 65.0765C286.962 64.7794 287.184 64.517 287.493 64.5037C287.77 64.4989 288.006 64.675 288.082 64.893C289.475 68.8802 290.528 72.94 291.474 76.9938C291.926 79.0348 292.377 81.0757 292.722 83.1108C293.089 85.1571 293.424 87.2119 293.641 89.2805C293.675 89.5777 293.432 89.8287 293.123 89.842C292.91 89.881 292.674 89.7049 292.566 89.4443Z" fill="black"/>
<path d="M115.973 248.051C115.246 246.32 114.701 244.559 114.208 242.801C113.694 241.031 113.298 239.248 112.965 237.447C112.321 233.858 111.879 230.25 111.938 226.629C111.936 226.324 112.19 226.104 112.51 226.122C112.776 226.137 113.002 226.333 113.046 226.559C113.956 230.112 114.611 233.63 115.308 237.171L116.242 242.487C116.531 244.264 116.853 246.033 117.048 247.836C117.082 248.133 116.86 248.395 116.551 248.409C116.295 248.425 116.06 248.249 115.973 248.051Z" fill="black"/>
</svg>
